{"title":"Dhoop Chhaon 1977 2CD DvDrip ~ Sanjeev Kumar Classic ~ [RdY]","uid":6512899,"size":1503268864,"categoryP":"video","categoryS":"movies","magnet":"?xt=urn:btih:327b41602708c8ac193a2a8212a73ae53871fddd&amp;dn=+Dhoop+Chhaon+1977+2CD+DvDrip+%7E+Sanjeev+Kumar+Classic+%7E+%5BRdY%5D&amp;tr=udp%3A%2F%2Ftracker.openbittorrent.com%3A80&amp;tr=udp%3A%2F%2Fopen.demonii.com%3A1337&amp;tr=udp%3A%2F%2Ftracker.coppersurfer.tk%3A6969&amp;tr=udp%3A%2F%2Fexodus.desync.com%3A6969","seeders":0,"leechers":1,"uploader":"ilyas2000pk","files":-1,"time":1309705729,"description":"Color\nC\n\nRelease Date\n1977\n\n\nGenre\nFamily Drama \n\n\nProducer\nS N Jain\n\n\n\nDirector\nPrahlad Sharma\n\n\nStar Cast\nSanjeev Kumar\nHema Malini\nOm Shiv Puri\nBadri Prasad\nJankidas\nNasir Husain\nYogita Bali\nGajanan Jagirdar\n\n\nTitle                            : Dhoop Chhaon 1977 2CD DvDrip ~ Sanjeev Kumar Classic ~ [RdY]\nFormat                           : AVI\nFormat/Info                      : Audio Video Interleave\nFile size                        : 1.40 GiB\nDuration                         : 2h 8mn\nOverall bit rate                 : 1 557 Kbps\nWriting application              : VirtualDubMod 1.5.10.2 (build 2540/release)\nWriting library                  : VirtualDubMod build 2540/release\n\nVideo\nFormat                           : MPEG-4 Visual\nFormat profile                   : Streaming Video@L1\nFormat settings, BVOP            : Yes\nFormat settings, QPel            : No\nFormat settings, GMC             : No warppoints\nFormat settings, Matrix          : Default (H.263)\nMuxing mode                      : Packed bitstream\nCodec ID                         : XVID\nCodec ID/Hint                    : XviD\nDuration                         : 2h 8mn\nBit rate                         : 1 097 Kbps\nWidth                            : 640 pixels\nHeight                           : 480 pixels\nDisplay aspect ratio             : 4/3\nFrame rate                       : 29.970 fps\nResolution                       : 24 bits\nColorimetry                      : 4:2:0\nScan type                        : Progressive\nBits/(Pixel*Frame)               : 0.119\nStream size                      : 1 010 MiB (70%)\nWriting library                  : XviD 1.1.2 (UTC 2006-11-01)\n\nAudio\nFormat                           : AC-3\nFormat/Info                      : Audio Coding 3\nCodec ID                         : 2000\nDuration                         : 2h 8mn\nBit rate mode                    : Constant\nBit rate                         : 448 Kbps\nChannel(s)                       : 6 channels\nChannel positions                : Front: L C R, Surround: L R, LFE\nSampling rate                    : 48.0 KHz\nStream size                      : 413 MiB (29%)\nAlignment                        : Split accross interleaves\nInterleave, duration             : 33 ms (1.00 video frame)\nInterleave, preload duration     : 500 ms\n\n","torrent":{"xt":"urn:btih:327b41602708c8ac193a2a8212a73ae53871fddd","amp;dn":"+Dhoop+Chhaon+1977+2CD+DvDrip+%7E+Sanjeev+Kumar+Classic+%7E+%5BRdY%5D","amp;tr":["udp%3A%2F%2Ftracker.openbittorrent.com%3A80","udp%3A%2F%2Fopen.demonii.com%3A1337","udp%3A%2F%2Ftracker.coppersurfer.tk%3A6969","udp%3A%2F%2Fexodus.desync.com%3A6969"],"infoHash":"327b41602708c8ac193a2a8212a73ae53871fddd","infoHashBuffer":{"type":"Buffer","data":[50,123,65,96,39,8,200,172,25,58,42,130,18,167,58,229,56,113,253,221]},"announce":[],"urlList":[]}}